<svg version="1" xmlns="http://www.w3.org/2000/svg" width="933.333" height="933.333" viewBox="0 0 700.000000 700.000000"><path d="M332.7 19.6c-.1.1-4 .5-8.7.9-9.8.7-11.3.9-33 4.1-1.9.3-5.1.9-7 1.4-1.9.5-4.7 1.1-6.1 1.4-9.8 1.7-38.2 10.4-49.4 15.1-23.6 9.9-36.2 16.5-60.9 31.8-1.1.7-6.2 4.2-11.3 8-57.1 41.5-99 99.1-121.2 166.8-1.2 3.6-2.4 7.4-2.6 8.5-.3 1-1.8 7.3-3.5 13.9-1.7 6.6-3.2 13.1-3.5 14.5-.8 4.4-3.4 21.4-3.9 25.5-2.6 20.3-2.6 54.9-.1 75.7.3 1.8.7 5.5 1 8.3 1.2 10.2 6.7 35.4 10.6 48.5 7.7 25.9 20.3 54.3 34.4 77.5 6.3 10.3 17.8 27.1 22.4 32.6 21.7 26 39.1 43.1 60.6 59.4 10.2 7.8 26.5 18.7 34 22.7 10.6 5.8 26.3 13.7 34.5 17.2 4.7 2.1 9.4 4.2 10.5 4.7 7 3.2 41.6 13.5 52 15.5 1.1.2 3.1.6 4.5.9 9.4 1.8 27.5 4.3 38.9 5.2 15.8 1.3 48.4.7 62.6-1.2 17.5-2.2 19-2.5 39.7-7 13.1-2.8 38.9-11.4 52.9-17.5 64.4-28.3 115.5-72.7 152.4-132.5 12.3-19.8 25.5-48.9 33-72.5 3-9.6 8.2-30.2 9.1-35.8.3-2 .7-4.4.9-5.2.9-3.1 3.4-23 4.1-32.1 1.8-23.6.4-59.5-3.2-78.9-.3-1.4-1.1-5.9-1.9-10.2-.7-4.2-1.9-9.6-2.5-12-.7-2.3-1.4-5.4-1.6-6.8-.3-1.4-1-4.1-1.6-6-.7-1.9-1.3-4-1.4-4.5-.5-2.9-3.7-12.4-7.7-23.2C633.3 164 584.1 105.1 519 66c-36.6-22.1-83.5-38.5-124.4-43.5-2.2-.3-5.1-.7-6.5-.9-8.3-1.4-54.3-3-55.4-2zM372 64.4c37.1 3.1 69.2 11.7 101 27 69.8 33.5 122.7 92.6 147.7 165.1 1.9 5.5 3.7 10.7 3.9 11.5 4 15.3 6.4 24.9 6.8 27.4 3.9 23.9 4.9 34.4 4.9 53.6.1 12.7-.7 27-1.8 35-.2 1.4-.6 4.7-.9 7.5-.4 2.7-1.6 9.2-2.7 14.5-1.1 5.2-2.3 10.6-2.5 12-1.2 6.2-6.9 24.3-10.9 34.7-34.7 89.5-112.9 156.8-206 177.2-4.9 1.1-10.6 2.2-12.5 2.5-1.9.2-5.7.8-8.5 1.2-2.7.3-5.9.8-7 1-12 2.2-53.7 2.2-67.6-.1-1.3-.2-4.4-.6-6.9-.9-2.5-.3-5.6-.8-7-1.1-1.4-.3-4.1-.8-6-1.1-53.2-9.3-108.8-39-149.5-80C108.1 512.8 80.2 461 69.6 409c-2.3-11.3-2.6-13.1-3.2-18-.3-2.5-.7-5.2-.9-6-2.3-8.8-2.3-56.2 0-69.1.2-1.3.7-4.4.9-6.9 1-8.6 5-27 8.5-39C103 173.7 181 97.8 277.3 73c8.3-2.1 16.8-4.1 18.7-4.4 1.9-.3 6.7-1.1 10.5-1.7 3.9-.6 8.1-1.2 9.4-1.4 1.2-.2 6-.7 10.5-1.1 4.4-.3 8.2-.7 8.3-.8.5-.4 30.3.2 37.3.8z"/><path d="M233 137.6c-35.8 19.6-70.9 53.4-90.8 87.3-9 15.4-22.2 45.2-24.7 56.1-.2.8-1.5 5.9-2.9 11.3-1.4 5.5-2.8 11.8-3.1 14-.3 2.3-1 6.7-1.5 9.7-2.7 15.8-3 50.1-.6 63.6.2 1 .6 4.1 1 6.9 1.7 12.5 9.3 41.8 13 49.8.8 1.8 2.4 5.5 3.5 8.4 2.7 6.9 11.1 23.2 16.1 31.2 2.2 3.4 4 6.5 4 6.6 0 .2 2.5 3.7 5.6 7.9l5.5 7.4 15.5-15.5c8.4-8.5 15.4-15.7 15.4-16.1 0-.3-2.5-4.3-5.5-8.8-20.2-30.5-31.7-69.3-31.8-107.9 0-6.3 1.2-25.6 1.7-26.4.2-.3.7-3 1-6 .4-2.9.8-5.7 1.1-6.1.2-.4.7-2.2 1-4.1.8-5 3.5-14.2 4.1-13.8.2.2 63.6 63.6 140.9 140.8l140.4 140.4 5.3-2.3c16-6.7 39.6-21 54.3-32.9 9.1-7.4 28.2-25.9 32.8-31.9 2-2.6 4.6-5.8 5.9-7.2 3.5-3.8 10.9-14.4 17.2-24.9 19.8-32.6 31.2-68.2 34.2-106.1 1.7-22.7.5-43.8-4.1-68.1-.8-4.5-5.3-21.1-7.3-27.4-4.7-14.3-15.6-38.2-22-47.9-1.5-2.3-3.1-4.9-3.7-5.8-9.3-15.9-31.3-40.9-48.6-55.3-14.2-11.9-43.6-31.1-46.1-30.3-.4.2-25.3 24.8-55.3 54.7L350 243.3l-54.5-54.4c-30-29.9-54.9-54.5-55.3-54.6-.4-.1-3.6 1.4-7.2 3.3zm241.4 58.1c20.4 16.3 39.3 39.5 51 62.3 2.1 4.1 4.2 7.9 4.6 8.5 3.4 5.1 11.4 30 14.4 45 5.4 26.3 5.2 50.4-.5 79.4-1.2 5.7-3.6 14.9-5.6 20.5-1.9 5.6-3.7 11.1-4 12.3-.3 1.3-.8 2.3-1.2 2.3-.3 0-34.6-34-76.2-75.6l-75.7-75.7 42.2-42.3c23.1-23.2 42.5-42.3 43-42.3.5-.1 4.1 2.5 8 5.6z"/></svg>