<?xml version="1.0" encoding="UTF-8" standalone="no"?>
<!DOCTYPE svg PUBLIC "-//W3C//DTD SVG 1.1//EN" "http://www.w3.org/Graphics/SVG/1.1/DTD/svg11.dtd">
<svg width="100%" height="100%" viewBox="0 0 48 48" version="1.1" xmlns="http://www.w3.org/2000/svg" xmlns:xlink="http://www.w3.org/1999/xlink" xml:space="preserve" style="fill-rule:evenodd;clip-rule:evenodd;stroke-linejoin:round;stroke-miterlimit:1.41421;">
    <g id="surface1" transform="matrix(1.51166,0,0,1.51166,-13.7914,-22.8614)">
        <path d="M19.75,22.082C17.41,23.273 16.148,24.703 15.145,27.145L29.176,41.176C30.977,40.434 32.535,39.23 33.707,37.707C34.121,37.168 33.563,36.238 33.875,35.625L33.301,34.473L26.414,27.586L19.75,22.082Z" style="fill:rgb(41,128,185);fill-rule:nonzero;"/>
        <path d="M25,18C32.168,18 38,23.832 38,31C38,38.168 32.168,44 25,44C17.832,44 12,38.168 12,31C12,23.832 17.832,18 25,18M25,16C16.723,16 10,22.723 10,31C10,39.277 16.723,46 25,46C33.277,46 40,39.277 40,31C40,22.723 33.277,16 25,16Z" style="fill:rgb(241,196,15);fill-rule:nonzero;"/>
        <path d="M36,31C36,33.531 35.148,35.859 33.711,37.711L32.281,36.281C33.359,34.801 34,32.969 34,31C34,28.012 32.531,25.359 30.281,23.719L25,29L19.719,23.719C17.469,25.359 16,28.012 16,31C16,32.969 16.641,34.801 17.719,36.281L16.289,37.711C14.852,35.859 14,33.531 14,31C14,27.449 15.68,24.289 18.289,22.289C18.828,21.871 19.41,21.5 20.02,21.191L23.996,25.168L25,26.142L26.172,25L29.98,21.191C30.59,21.5 31.172,21.871 31.711,22.289C34.32,24.289 36,27.449 36,31Z" style="fill:rgb(241,196,15);fill-rule:nonzero;"/>
    </g>
</svg>
