<?xml version="1.0" encoding="utf-8"?>
<!-- Generator: Adobe Illustrator 18.0.0, SVG Export Plug-In . SVG Version: 6.00 Build 0)  -->
<!DOCTYPE svg PUBLIC "-//W3C//DTD SVG 1.1//EN" "http://www.w3.org/Graphics/SVG/1.1/DTD/svg11.dtd">
<svg version="1.1" xmlns="http://www.w3.org/2000/svg" xmlns:xlink="http://www.w3.org/1999/xlink" x="0px" y="0px"
	 viewBox="12.1 -33.4 215.7 146.8" enable-background="new 12.1 -33.4 215.7 146.8" xml:space="preserve">
<g id="Layer_1">
	<g id="guides" display="none">
	</g>
	<g id="Vo9kor.tif" display="none">
	</g>
</g>
<g id="Modo_de_aislamiento">
	<g>
		<g>
			<path fill="goldenrod" d="M136.4,1.2c0.6-0.3,1.1-0.8,1.2-1.5c1,0.2,2.1,0.5,2.9,0.8c0.8,0.3,1.5,0.8,2,1.2
				c0.5,1.2,0.8,2.7,0.9,4.4c-0.6,0.2-1,0.9-1.2,1.5c-0.4,0.9-0.4,1.9,0.6,2.6c-0.9,0.1-1.7-0.7-1.7-1.7c0.2-0.2,0.3-0.5,0.4-0.8
				c0.3-1.1-0.4-2.2-1.4-2.5c-1.1-0.3-2.2,0.4-2.5,1.4c0,0.1,0,0.2-0.1,0.4c-0.9,1.1-2.7,0.5-2.8-0.9c1.7,0.3,2.4-0.5,2.7-1.7
				c0.2-1,0.1-1.9-1-2.5C136.5,1.8,136.5,1.5,136.4,1.2 M133.6,8.2c-0.7-0.2-1.4-0.4-2.1-0.6c0.6-0.3,1.1-0.7,1.4-1.2
				C133,7.2,133.2,7.8,133.6,8.2 M138.5,9c0.2,0.1,0.4,0.2,0.6,0.3l0.1,0c0.1,0.4,0.2,0.8,0.5,1.1c-0.8-0.3-1.5-0.6-2.3-0.9
				C137.8,9.4,138.2,9.2,138.5,9 M120,4.9c0.2,0.6,0.6,1.1,1.1,1.5c-0.4,0-0.7,0-1.1,0c-0.4,0-0.8,0-1.1,0
				C119.4,6,119.8,5.5,120,4.9 M100.3,10.4c0.2-0.4,0.4-0.7,0.5-1.1l0.1,0c0.2-0.1,0.4-0.1,0.6-0.3c0.3,0.2,0.7,0.4,1.1,0.5
				C101.8,9.8,101.1,10.1,100.3,10.4 M108.6,7.7c-0.7,0.2-1.4,0.4-2.1,0.6c0.4-0.5,0.6-1.1,0.7-1.7C107.5,7,108,7.4,108.6,7.7
				 M113.3,5.7c0.1,0,0.3,0,0.4-0.1c0.3,0.4,0.7,0.8,1.2,1c-0.8,0.1-1.6,0.2-2.5,0.3C112.8,6.6,113.1,6.1,113.3,5.7 M126.7,5.7
				c0.2,0.5,0.5,1,0.9,1.3c-0.8-0.1-1.6-0.2-2.5-0.3c0.5-0.3,0.9-0.6,1.2-1C126.4,5.6,126.5,5.7,126.7,5.7"/>
			<path fill="goldenrod" d="M138.7,14.8l1.2-0.5l0.1,0.2l0.2,1l-0.9,0.5l-0.2,0.1l-0.1-0.4L138.7,14.8z M101.3,14.8l-0.3,1l-0.1,0.4
				l-0.2-0.1l-0.9-0.5l0.3-1l0-0.2l0.3,0.1L101.3,14.8z M122.9,10.9L120,12l-2.9-1.1l2.9-1.1L122.9,10.9z M99.5,0.6
				c0.9-0.3,2-0.6,2.9-0.8c0.1,0.7,0.6,1.2,1.2,1.5c-0.1,0.2-0.1,0.5-0.1,0.8c-1.1,0.6-1.2,1.5-1,2.5c0.3,1.1,1,2,2.7,1.7
				c-0.1,1.5-1.9,2-2.8,0.9c0-0.1,0-0.2-0.1-0.4c-0.3-1.1-1.4-1.7-2.5-1.4c-1.1,0.3-1.7,1.4-1.5,2.4c0.1,0.3,0.2,0.6,0.4,0.8
				c0,0.6-0.3,1.2-0.8,1.5c-0.3,0.2-0.6,0.2-0.9,0.2c1-0.7,1-1.6,0.6-2.6c-0.2-0.6-0.6-1.2-1.2-1.5c0.1-1.7,0.4-3.2,0.9-4.4
				C98,1.4,98.7,1,99.5,0.6 M121.5-4.3c3.2-0.5,7.4-0.2,10.6,1.6c0.3,0.9,0.5,1.8,0.6,2.7c-0.4,0.2-0.7,0.5-0.9,0.9
				c-1.2,0-1.8,0.8-2,1.7c-0.3,1.1-0.1,2.2,1.6,2.8c-0.4,0.6-1.1,0.9-1.7,0.7c-0.7-0.2-1.2-0.8-1.2-1.5c0.2-0.3,0.2-0.6,0.2-1
				c0-1.1-0.9-2-2-2c-1.1,0-2,0.9-2,2c0,0.2,0,0.3,0.1,0.5c-0.2,0.6-0.8,1.1-1.5,1.1c-0.7,0-1.3-0.5-1.5-1.1
				c1.7-0.1,2.2-1.1,2.2-2.3c0-1-0.3-1.9-1.5-2.2c-0.2-0.8-0.7-1.2-1.3-1.5c0.4-0.3,0.6-0.8,0.6-1.4c0-0.3-0.1-0.7-0.3-1V-4.3z
				 M107.8-2.7c3.2-1.8,7.4-2.1,10.6-1.6v0.2c-0.2,0.3-0.3,0.6-0.3,1c0,0.6,0.3,1,0.7,1.4c-0.6,0.2-1.1,0.7-1.3,1.5
				c-1.2,0.3-1.5,1.2-1.5,2.2c0,1.2,0.5,2.2,2.2,2.3c-0.2,0.6-0.8,1.1-1.5,1.1c-0.7,0-1.3-0.5-1.5-1.1c0-0.2,0.1-0.3,0.1-0.5
				c0-1.1-0.9-2-2-2c-1.1,0-2,0.9-2,2c0,0.3,0.1,0.7,0.2,1c0,0.7-0.5,1.3-1.2,1.5c-0.7,0.2-1.4-0.1-1.7-0.7c1.6-0.5,1.9-1.6,1.6-2.8
				c-0.2-1-0.8-1.8-2-1.7c-0.2-0.4-0.5-0.7-0.9-0.9C107.3-1,107.5-1.9,107.8-2.7"/>
			<path fill="goldenrod" d="M106.5-5.5c0.6,0,1.2-0.5,1.2-1.2c0-0.6-0.5-1.2-1.2-1.2c-0.6,0-1.2,0.5-1.2,1.2
				C105.4-6,105.9-5.5,106.5-5.5 M106.5-7.5c0.5,0,0.9,0.4,0.9,0.9c0,0.5-0.4,0.9-0.9,0.9s-0.9-0.4-0.9-0.9
				C105.6-7.1,106-7.5,106.5-7.5"/>
			<path fill="goldenrod" d="M96.2,6.5c0.7,0.2,1,0.7,1.2,1.3c0.5,1.4-0.1,1.9-1.3,2.5c0.7,0.3,1.3,0.4,2,0c0.7-0.4,1.1-1.2,1-2
				C99,8.2,98.9,8,98.8,7.7c-0.2-0.9,0.3-1.8,1.2-2c0.9-0.2,1.8,0.3,2,1.2c0,0.1,0,0.3,0,0.4c1.2,1.6,3.8,0.8,3.6-1.5
				c-1.4,0.4-2.3,0.2-2.7-1.3c-0.3-1,0-1.7,1-2.2c0-0.6,0-0.8,0.3-1.3c-0.8-0.2-1.4-0.7-1.4-1.6c0-1.1,0.8-1.5,1.7-1.7
				c-0.5-0.4-1-0.8-1-1.5c0-0.1,0-0.1-0.4-0.3C98.1-1.6,96.7,1,96.2,6.5 M103.6,1.2c-0.1,0.2-0.1,0.5-0.1,0.8
				c-1.1,0.6-1.2,1.5-1,2.5c0.3,1.1,1,2,2.7,1.7c-0.1,1.5-1.9,2-2.8,0.9c0-0.1,0-0.2-0.1-0.4c-0.3-1.1-1.4-1.7-2.5-1.5
				c-1.1,0.3-1.7,1.4-1.5,2.5c0.1,0.3,0.2,0.6,0.4,0.8c0,0.6-0.3,1.2-0.8,1.5c-0.3,0.1-0.6,0.2-0.9,0.2c1-0.7,1-1.6,0.6-2.6
				c-0.2-0.6-0.6-1.2-1.2-1.4c0.1-1.7,0.4-3.2,0.9-4.4c0.5-0.4,1.1-0.9,2-1.2c0.9-0.3,2-0.6,2.9-0.8C102.6,0.4,103,1,103.6,1.2
				 M103.1-3.7c0,0.5,0.2,0.9,0.5,1.2c-0.7,0.3-1.3,1-1.3,2c-1,0.2-2.1,0.5-3,0.9c-0.6,0.2-1.2,0.5-1.7,0.9
				C98.7-0.7,100.3-2.2,103.1-3.7"/>
			<path fill="goldenrod" d="M104-3.8c0,0.6,0.5,1.1,1.2,1.1c0.6,0,1.2-0.5,1.2-1.1c0-0.6-0.5-1.2-1.2-1.2C104.5-5,104-4.4,104-3.8
				 M105.1-4.7c0.5,0,0.9,0.4,0.9,0.9c0,0.5-0.4,0.9-0.9,0.9c-0.5,0-0.9-0.4-0.9-0.9C104.2-4.3,104.6-4.7,105.1-4.7"/>
			<path fill="goldenrod" d="M96,1.4c0-0.6-0.5-1.2-1.2-1.2c-0.6,0-1.2,0.5-1.2,1.2c0,0.6,0.5,1.2,1.2,1.2C95.4,2.6,96,2.1,96,1.4
				 M93.9,1.4c0-0.5,0.4-0.9,0.9-0.9c0.5,0,0.9,0.4,0.9,0.9c0,0.5-0.4,0.9-0.9,0.9C94.3,2.3,93.9,1.9,93.9,1.4"/>
			<path fill="goldenrod" d="M103.7-5.7c0.6,0,1.2-0.5,1.2-1.2c0-0.6-0.5-1.2-1.2-1.2c-0.6,0-1.2,0.5-1.2,1.2
				C102.5-6.2,103-5.7,103.7-5.7 M103.7-7.8c0.5,0,0.9,0.4,0.9,0.9c0,0.5-0.4,0.9-0.9,0.9c-0.5,0-0.9-0.4-0.9-0.9
				C102.8-7.4,103.2-7.8,103.7-7.8"/>
			<path fill="goldenrod" d="M100.9-4.6c0.6,0,1.1-0.5,1.1-1.2c0-0.6-0.5-1.2-1.1-1.2c-0.6,0-1.2,0.5-1.2,1.2
				C99.7-5.1,100.2-4.6,100.9-4.6 M100.9-6.7c0.5,0,0.9,0.4,0.9,0.9s-0.4,0.9-0.9,0.9c-0.5,0-0.9-0.4-0.9-0.9
				C100-6.3,100.4-6.7,100.9-6.7"/>
			<path fill="goldenrod" d="M96.1-0.2c0.6,0,1.2-0.5,1.2-1.2c0-0.6-0.5-1.2-1.2-1.2C95.5-2.5,95-2,95-1.4C95-0.7,95.5-0.2,96.1-0.2
				 M96.1-2.3c0.5,0,0.9,0.4,0.9,0.9c0,0.5-0.4,0.9-0.9,0.9c-0.5,0-0.9-0.4-0.9-0.9C95.2-1.9,95.6-2.3,96.1-2.3"/>
			<path fill="goldenrod" d="M98.3-2.7c0.6,0,1.1-0.5,1.1-1.2c0-0.6-0.5-1.2-1.1-1.2c-0.6,0-1.2,0.5-1.2,1.2
				C97.1-3.2,97.6-2.7,98.3-2.7 M98.3-4.8c0.5,0,0.9,0.4,0.9,0.9c0,0.5-0.4,0.9-0.9,0.9c-0.5,0-0.9-0.4-0.9-0.9
				C97.4-4.4,97.8-4.8,98.3-4.8"/>
			<path fill="goldenrod" d="M118.8-3.2c0,0.6,0.5,1.2,1.1,1.2c0.6,0,1.2-0.5,1.2-1.2c0-0.6-0.5-1.2-1.2-1.2
				C119.4-4.3,118.8-3.8,118.8-3.2 M120.9-3.2c0,0.5-0.4,0.9-0.9,0.9c-0.5,0-0.9-0.4-0.9-0.9c0-0.5,0.4-0.9,0.9-0.9
				C120.5-4.1,120.9-3.7,120.9-3.2"/>
			<path fill="goldenrod" d="M114.2-10.8c0.6,0,1.1-0.5,1.1-1.2c0-0.6-0.5-1.2-1.1-1.2c-0.6,0-1.2,0.5-1.2,1.2
				C113.1-11.3,113.6-10.8,114.2-10.8 M114.2-12.8c0.5,0,0.9,0.4,0.9,0.9c0,0.5-0.4,0.9-0.9,0.9c-0.5,0-0.9-0.4-0.9-0.9
				C113.3-12.4,113.7-12.8,114.2-12.8"/>
			<path fill="goldenrod" d="M117.2-11.3c0.6,0,1.2-0.5,1.2-1.2c0-0.6-0.5-1.2-1.2-1.2c-0.6,0-1.2,0.5-1.2,1.2
				C116-11.8,116.5-11.3,117.2-11.3 M117.2-13.3c0.5,0,0.9,0.4,0.9,0.9c0,0.5-0.4,0.9-0.9,0.9c-0.5,0-0.9-0.4-0.9-0.9
				C116.3-12.9,116.7-13.3,117.2-13.3"/>
			<path fill="goldenrod" d="M94.1,5.8c0.6,0,1.1-0.5,1.1-1.2c0-0.6-0.5-1.1-1.1-1.1c-0.6,0-1.2,0.5-1.2,1.1
				C92.9,5.3,93.4,5.8,94.1,5.8 M94.1,3.7c0.5,0,0.9,0.4,0.9,0.9c0,0.5-0.4,0.9-0.9,0.9c-0.5,0-0.9-0.4-0.9-0.9
				C93.2,4.1,93.6,3.7,94.1,3.7"/>
			<path fill="goldenrod" d="M111.4-9.7c0.6,0,1.2-0.5,1.2-1.2c0-0.6-0.5-1.2-1.2-1.2c-0.6,0-1.1,0.5-1.1,1.2
				C110.2-10.2,110.8-9.7,111.4-9.7 M111.4-11.8c0.5,0,0.9,0.4,0.9,0.9s-0.4,0.9-0.9,0.9c-0.5,0-0.9-0.4-0.9-0.9
				S110.9-11.8,111.4-11.8"/>
			<path fill="goldenrod" d="M107.9,1.3c1.1-0.1,1.6,0.4,1.9,1.4c0.4,1.5-0.3,2-1.7,2.4c0.4,1,1.3,1.6,2.4,1.3c0.9-0.2,1.5-1,1.5-1.9
				c-0.2-0.3-0.2-0.5-0.2-0.9c0-0.9,0.7-1.6,1.6-1.6c0.9,0,1.6,0.7,1.6,1.6c0,0.2,0,0.3-0.1,0.5c0.3,0.9,1,1.5,1.9,1.5
				c1.2,0,1.8-0.8,2-1.9c-1.4,0-2.3-0.4-2.3-1.9c0-1.1,0.4-1.6,1.5-1.9c0.3-1.3,0.9-1.4,2.1-1.6c-0.7-0.3-1.4-0.6-1.4-1.5
				c0-0.3,0.1-0.6,0.3-0.8v-1.6c-0.2-0.3-0.3-0.5-0.3-0.8c0-0.3,0.1-0.6,0.3-0.8v-1.6c-0.2-0.3-0.3-0.5-0.3-0.8c0-0.1,0-0.2,0-0.4
				c-6.5-0.5-11.2,4-11.8,10.2C107.4,0.4,107.6,0.7,107.9,1.3 M118.2-9.7c0,0.3,0.1,0.7,0.3,1v1.3c-0.2,0.3-0.3,0.6-0.3,0.9
				c0,0.4,0.1,0.7,0.3,1v0.9c-3.4-0.5-7.4-0.1-10.5,1.5C109.6-7.1,113.3-9.9,118.2-9.7 M118.5-4.3v0.2c-0.2,0.3-0.3,0.6-0.3,0.9
				c0,0.6,0.3,1,0.7,1.4c-0.6,0.2-1.1,0.6-1.3,1.5c-1.2,0.3-1.5,1.2-1.5,2.2c0,1.2,0.5,2.2,2.2,2.3c-0.2,0.6-0.8,1.1-1.5,1.1
				c-0.7,0-1.3-0.5-1.5-1.1c0-0.2,0.1-0.3,0.1-0.5c0-1.1-0.9-2-2-2c-1.1,0-2,0.9-2,2c0,0.3,0.1,0.7,0.2,1c0,0.7-0.5,1.3-1.2,1.5
				c-0.7,0.2-1.4-0.1-1.7-0.7c1.6-0.5,1.9-1.6,1.6-2.7c-0.2-1-0.8-1.7-2-1.7c-0.2-0.4-0.5-0.7-0.9-0.9c0.1-0.9,0.3-1.8,0.6-2.7
				C111.1-4.5,115.2-4.8,118.5-4.3"/>
			<path fill="goldenrod" d="M122.1,0c1.1,0.2,1.5,0.8,1.5,1.9c0,1.5-0.8,1.9-2.3,1.9c0.2,1,0.8,1.9,2,1.9c0.9,0,1.6-0.6,1.9-1.5
				c-0.1-0.2-0.1-0.3-0.1-0.5c0-0.9,0.7-1.6,1.6-1.6c0.9,0,1.6,0.7,1.6,1.6c0,0.3-0.1,0.6-0.2,0.9c0,0.9,0.6,1.7,1.5,1.9
				c1.1,0.3,2-0.4,2.4-1.3c-1.4-0.4-2.1-0.9-1.7-2.4c0.3-1,0.8-1.5,1.9-1.4c0.3-0.6,0.5-0.8,1.1-1.1c-0.6-6.3-5.3-10.7-11.8-10.2
				c0,0.1,0,0.2,0,0.4c0,0.3-0.1,0.6-0.3,0.8v1.6c0.2,0.3,0.3,0.5,0.3,0.8c0,0.3-0.1,0.6-0.3,0.8l0,1.6c0.2,0.2,0.2,0.5,0.2,0.8
				c0,0.9-0.7,1.2-1.4,1.5C121.1-1.4,121.8-1.4,122.1,0 M121.5-5.5c0.2-0.3,0.3-0.6,0.3-1c0-0.3-0.1-0.7-0.3-0.9v-1.3
				c0.2-0.3,0.3-0.6,0.3-1c5-0.3,8.7,2.6,10.2,6.6c-3.1-1.6-7.1-2-10.5-1.5V-5.5z M121.8-3.2c0-0.4-0.1-0.7-0.3-0.9v-0.2
				c3.2-0.5,7.4-0.2,10.6,1.6c0.3,0.9,0.5,1.8,0.6,2.7c-0.4,0.2-0.7,0.5-0.9,0.9c-1.2,0-1.8,0.8-2,1.7c-0.3,1.1-0.1,2.2,1.6,2.7
				c-0.4,0.6-1.1,0.9-1.7,0.7c-0.7-0.2-1.2-0.8-1.2-1.5c0.2-0.3,0.2-0.6,0.2-1c0-1.1-0.9-2-2-2c-1.1,0-2,0.9-2,2
				c0,0.2,0,0.4,0.1,0.5c-0.2,0.6-0.8,1.1-1.5,1.1c-0.7,0-1.3-0.5-1.5-1.1c1.7-0.1,2.2-1.1,2.2-2.3c0-1-0.3-1.9-1.5-2.2
				c-0.2-0.8-0.7-1.2-1.3-1.5C121.5-2.1,121.8-2.6,121.8-3.2"/>
			<path fill="goldenrod" d="M108.6-7.9c0.6,0,1.2-0.5,1.2-1.2c0-0.6-0.5-1.2-1.2-1.2s-1.2,0.5-1.2,1.2C107.5-8.4,108-7.9,108.6-7.9
				 M108.6-9.9c0.5,0,0.9,0.4,0.9,0.9c0,0.5-0.4,0.9-0.9,0.9c-0.5,0-0.9-0.4-0.9-0.9C107.7-9.5,108.1-9.9,108.6-9.9"/>
			<path fill="goldenrod" d="M120-7.6c-0.6,0-1.1,0.5-1.1,1.2c0,0.6,0.5,1.2,1.1,1.2c0.6,0,1.2-0.5,1.2-1.2C121.2-7,120.6-7.6,120-7.6
				 M120-5.5c-0.5,0-0.9-0.4-0.9-0.9c0-0.5,0.4-0.9,0.9-0.9c0.5,0,0.9,0.4,0.9,0.9C120.9-5.9,120.5-5.5,120-5.5"/>
			<path fill="goldenrod" d="M120,19.4c-20.5,0-37.3,16.7-37.3,37.3C82.7,77.2,99.5,94,120,94c20.5,0,37.3-16.8,37.3-37.3
				C157.3,36.1,140.5,19.4,120,19.4 M120,92.8c-19.8,0-36.1-16.2-36.1-36.1c0-19.9,16.2-36.1,36.1-36.1c19.8,0,36.1,16.2,36.1,36.1
				C156.1,76.5,139.8,92.8,120,92.8"/>
			<path fill="goldenrod" d="M114.6,39.1l5.4,5.5l5.1-5.3c-1.8-0.5-3.5-0.8-5.3-0.9C118,38.3,116.2,38.7,114.6,39.1 M119.9,42.9
				l-2.9-3c1-0.2,2-0.2,2.6-0.2c1,0,2,0.1,3,0.3L119.9,42.9z"/>
			<path fill="goldenrod" d="M95.3,10.4c0.9-0.5,1.2-1.6,0.7-2.5c-0.5-0.9-1.6-1.2-2.5-0.7c-0.9,0.5-1.2,1.6-0.7,2.5
				C93.3,10.6,94.4,10.9,95.3,10.4 M93.6,7.4C94.4,7,95.4,7.3,95.8,8c0.4,0.8,0.1,1.8-0.6,2.2c-0.8,0.4-1.8,0.1-2.2-0.6
				C92.6,8.8,92.8,7.8,93.6,7.4"/>
			<path fill="goldenrod" d="M95.3,11.5C96,12,97,12.3,98,12.1c0,0.2,0,0.5,0.1,0.7c0.2,0.5,0.7,0.8,1.3,0.7c-0.2,0.4,0,0.9,0.5,1
				l-0.3,1.2l1.2,0.7c-0.2,0.2-0.2,0.5-0.1,0.7c0.2,0.3,0.5,0.5,0.9,0.4c5.6-2.6,11.8-4.1,18.4-4.1c6.6,0,12.8,1.5,18.4,4.1
				c0.4,0.2,0.8,0,0.9-0.4c0.1-0.3,0.1-0.5-0.1-0.7l1.2-0.7l-0.3-1.2c0.5-0.1,0.7-0.6,0.5-1c0.8,0.1,1.5-0.6,1.4-1.4
				c0.9,0.2,1.9,0,2.7-0.6c1,0.6,2,0.3,2.7-0.3c0.7-0.6,1.5-2,0.6-3c0.6-0.9,0.5-2.1-0.3-2.7c0.1-0.3,0.2-0.5,0.2-0.9
				c0-0.8-0.5-1.6-1.3-1.9c0.3-0.4,0.5-0.8,0.5-1.3c0-0.9-0.7-1.7-1.5-1.9c0.1-0.3,0.2-0.6,0.2-0.9c0-1.1-0.9-2-2.2-2
				c0-0.2,0.1-0.3,0.1-0.5c0-1.1-0.9-2-2-2c-0.2,0-0.4,0-0.6,0.1c0-1.1-0.9-2-2-2c-0.3,0-0.6,0.1-0.9,0.2c-0.3-0.8-1-1.3-1.9-1.3
				c-0.6,0-1.2,0.3-1.6,0.7c-0.4-0.3-0.8-0.5-1.5-0.5c0-0.1,0-0.3,0-0.4c0-1.1-0.9-2-2-2c-0.3,0-0.5,0.1-0.7,0.1c0-1.1-0.9-2-2-2
				c-0.4,0-0.7,0.1-1,0.3c-0.3-0.8-1-1.3-1.9-1.3c-0.5,0-0.9,0.2-1.2,0.4c-0.4-0.6-1-0.9-1.7-0.9c-0.2,0-0.4,0-0.5,0.1
				c-0.3-0.3-0.7-0.6-1.4-0.9v-1h1.4V-18h-1.4v-1.2h-1.8v1.2h-1.4v1.8h1.4l-0.2,1.1c-0.4,0.2-0.9,0.4-1.2,0.8
				c-0.2,0-0.3-0.1-0.5-0.1c-0.7,0-1.3,0.4-1.7,0.9c-0.3-0.3-0.8-0.4-1.2-0.4c-0.9,0-1.6,0.5-1.9,1.3c-0.3-0.2-0.6-0.3-1-0.3
				c-1.1,0-2,0.9-2,2c-0.2-0.1-0.5-0.1-0.7-0.1c-1.1,0-2,0.9-2,2c0,0.1,0,0.3-0.1,0.4c-0.5,0-1,0.2-1.3,0.5
				c-0.4-0.4-0.9-0.7-1.5-0.7c-0.9,0-1.6,0.6-1.9,1.3c-0.3-0.1-0.6-0.2-0.9-0.2c-1.1,0-2,0.9-2,2c-0.2-0.1-0.4-0.1-0.6-0.1
				c-1.1,0-2,0.9-2,2c0,0.2,0,0.3-0.1,0.5c-1.1,0-2,0.9-2,2c0,0.3,0.1,0.6,0.2,0.9c-0.9,0.2-1.5,1-1.5,1.9c0,0.5,0.2,1,0.5,1.3
				c-0.7,0.3-1.3,1-1.3,1.9c0,0.3,0.1,0.6,0.2,0.9c-0.8,0.6-1,1.8-0.3,2.7C90.5,9.7,93.1,12.8,95.3,11.5 M100.7,16.1l-0.9-0.5
				l0.3-1.2l0.3,0.1l0.9,0.3l-0.3,1L100.7,16.1z M140.2,15.5l-1.1,0.6l-0.1-0.4l-0.3-1l1.3-0.2L140.2,15.5z M140.1,14
				c-0.1,0-0.2,0-0.4,0.1l-1.3,0.5l0.4,1.5l-0.1,0.3c0.7,0.3,0.2,0.8-0.1,0.7c-5.6-2.7-11.9-4.1-18.6-4.1c-6.7,0-12.9,1.5-18.6,4.1
				c-0.1,0.1-0.3,0-0.4-0.2c-0.1-0.2,0-0.3,0.1-0.4c0.1,0,0.1-0.1,0.2-0.1l-0.1-0.3l0.4-1.5l-1.4-0.7C100.1,14,100,14,99.9,14
				c-0.4,0-0.3-0.4-0.2-0.5c6.1-2.9,13-4.5,20.2-4.5c7.3,0,14.1,1.6,20.2,4.5C140.4,13.6,140.4,14.1,140.1,14 M92.7,5.6
				c-0.2-0.3-0.3-0.6-0.3-1c0-1.1,0.8-1.5,1.7-1.7c-0.5-0.4-0.9-0.8-0.9-1.5c0-1.1,0.8-1.6,1.8-1.6c-0.3-0.4-0.5-0.7-0.5-1.2
				c0-0.9,0.7-1.6,1.6-1.6c0.3,0,0.6,0.1,0.8,0.2c-0.2-0.4-0.3-0.6-0.3-1c0-0.9,0.7-1.6,1.6-1.6c0.4,0,0.7,0.2,1.1,0.3
				c0-0.2-0.1-0.4-0.1-0.6c0-0.9,0.7-1.6,1.6-1.6c0.5,0,0.8,0.2,1.2,0.5c0.2-0.8,0.7-1.6,1.6-1.6c0.7,0,1.1,0.4,1.5,1
				c0.4-0.4,0.7-0.7,1.4-0.7c0.2,0,0.5,0.1,0.7,0.1C107.1-8.4,107-8.7,107-9c0-0.9,0.7-1.6,1.6-1.6c0.5,0,0.8,0.2,1.2,0.5
				c0-0.2-0.1-0.5-0.1-0.7c0-0.9,0.7-1.6,1.6-1.6c0.5,0,0.8,0.2,1.2,0.5c0.2-0.9,0.7-1.6,1.6-1.6c0.6,0,0.9,0.3,1.3,0.7
				c0.3-0.7,0.8-1.2,1.6-1.2c0.2,0,0.4,0.1,0.6,0.1c0.5-0.6,0.9-0.8,1.6-1v-1.7h-1.4v-1h1.4v-1.2h1.1v1.2h1.4v1h-1.4v1.7
				c0.7,0.2,1.1,0.4,1.6,1c0.2-0.1,0.4-0.1,0.6-0.1c0.8,0,1.3,0.5,1.6,1.2c0.4-0.4,0.7-0.7,1.3-0.7c1,0,1.5,0.7,1.6,1.6
				c0.4-0.3,0.7-0.5,1.2-0.5c0.9,0,1.6,0.7,1.6,1.6c0,0.2-0.1,0.5-0.1,0.7c0.4-0.3,0.7-0.5,1.2-0.5c0.9,0,1.6,0.7,1.6,1.6
				c0,0.4-0.1,0.6-0.2,0.9c0.2-0.1,0.5-0.1,0.7-0.1c0.6,0,1,0.3,1.4,0.7c0.4-0.6,0.8-1,1.5-1c1,0,1.5,0.7,1.6,1.6
				c0.4-0.3,0.7-0.5,1.2-0.5c0.9,0,1.6,0.7,1.6,1.6c0,0.2,0,0.4-0.1,0.6c0.4-0.2,0.6-0.3,1.1-0.3c0.9,0,1.6,0.7,1.6,1.6
				c0,0.4-0.2,0.7-0.3,1c0.3-0.1,0.5-0.2,0.8-0.2c0.9,0,1.6,0.7,1.6,1.6c0,0.5-0.2,0.8-0.4,1.2c0.9,0.1,1.8,0.5,1.8,1.6
				c0,0.8-0.4,1.1-1,1.5c0.9,0.2,1.7,0.6,1.7,1.7c0,0.4-0.1,0.6-0.3,1c1.1,0.7,1.1,1.7,0.3,2.7c0.9,0.8,0.4,2-0.3,2.6
				c-0.8,0.6-1.6,0.8-2.5,0.2c-1.1,0.9-2.1,0.9-3.3,0.5l0.2,0.4c0.3,0.7-0.3,1.4-1,1.1c-6.2-2.9-13.2-4.6-20.6-4.6
				c-7.3,0-14.3,1.6-20.5,4.6c-0.4,0.2-0.9,0-1.1-0.4c-0.2-0.4,0-0.7,0.2-1.1c-1.3,0.4-2.2,0.4-3.3-0.5c-2,1.4-4.4-1.5-2.9-2.8
				C91.7,7.3,91.7,6.3,92.7,5.6"/>
			<path fill="goldenrod" d="M136.5,25.5l-8.3,8.6c-2.4-0.9-5.2-1.4-8.2-1.5c-2.8,0-5.9,0.5-8.5,1.5l-8.1-8.5
				C92,32,84.8,43.4,84.8,56.6c0,9,3.2,16.5,9.2,23.1l5-5.1c-4.8-4.5-7.7-11.7-7.5-18.3c0.1-3.3,0.7-6.4,1.7-9.3l3.4,3.5
				c-0.4,1.7-0.7,3.4-0.7,5.2c-0.1,10.7,7.1,20.5,17.6,23.3v6h7v-5.2c1.5,0,2.9-0.2,4.3-0.5l6.1,6.2l3.3,3.3
				c6.6-2.9,12.1-7.8,15.7-14c3.4-5.5,5.2-11.5,5.2-18.3C155.1,43.3,147.9,31.9,136.5,25.5 M146.1,78.2l-3.7-3.7
				c4.2-5.1,6.9-10.1,6.9-18.2c0-8.6-4.5-18.3-11.7-23.3l-4.8,4.9c2.4,1.8,4.4,3.7,6,6.3l-3.6,3.1c-1.4-2.5-3.3-4.3-5.7-5.9l-9.5,10
				l-9.8-10.1c-5.1,3.6-8.1,8.6-8.2,15c-0.2,8.4,5.3,14.2,12.9,16.8V56.1h11.6v3.5h-7.1V64h7v4h-7v5.7c5.2,0.3,10.8-2.7,14.1-6.5
				l3.5,3.5c-4.5,5.2-10.9,7.8-17.6,7.8v5.2h-4.5V78c-10.3-2.6-17.7-11.6-17.6-22.3c0.1-7.4,4-13.4,9.7-17.7l-4.8-5
				c-7.5,6.1-11.5,13.6-11.8,23.3c-0.3,8.6,4.2,15.5,7,18.4L94,77.9c-5-5.9-8-13.1-8-21.3C86,44.1,93,33,103.1,27.2l8,8.4
				c2.8-1.1,5.8-1.7,8.9-1.7c3,0,5.7,0.6,8.5,1.7l0.3-0.3l7.9-8.2C147,33,153.9,44,153.9,56.6C153.9,64.8,150.9,72.3,146.1,78.2
				 M124.4,48.5l5.2-5.5c2.4,1.8,3.8,3.6,5.2,6.3l5.6-4.8c-1.6-2.6-3.3-4.7-5.7-6.6l3-3.1c5.1,3.8,10.3,12.3,10.3,21.7
				c0,5.3-1.2,9.2-3.4,13L124.4,48.5z M113.6,67.7v3.5c-6.5-2.5-10.2-8.1-10.4-14.1L113.6,67.7z"/>
			<path fill="goldenrod" d="M120,14.1c-23.5,0-42.6,19.2-42.6,42.6c0,23.4,19.1,42.6,42.6,42.6c23.5,0,42.6-19.1,42.6-42.6
				C162.6,33.2,143.5,14.1,120,14.1 M120,98c-22.8,0-41.3-18.6-41.3-41.3c0-22.8,18.6-41.4,41.3-41.4c22.8,0,41.3,18.6,41.3,41.4
				C161.3,79.4,142.8,98,120,98"/>
			<path fill="goldenrod" d="M131.4-7.9c0.6,0,1.2-0.5,1.2-1.2c0-0.6-0.5-1.2-1.2-1.2c-0.6,0-1.2,0.5-1.2,1.2
				C130.2-8.4,130.7-7.9,131.4-7.9 M131.4-9.9c0.5,0,0.9,0.4,0.9,0.9c0,0.5-0.4,0.9-0.9,0.9c-0.5,0-0.9-0.4-0.9-0.9
				C130.5-9.5,130.9-9.9,131.4-9.9"/>
			<path fill="goldenrod" d="M101.5,8.5c-0.4,0.3-0.6,0.4-1,0.4c-0.1,0.7-0.4,1.3-0.9,1.8l0.2,0.3c1.2-0.5,2.4-1,3.6-1.4l0-0.4
				C102.7,9.2,102.1,8.9,101.5,8.5 M100.3,10.4c0.2-0.3,0.4-0.7,0.6-1.2c0.2-0.1,0.4-0.1,0.6-0.3c0.3,0.2,0.7,0.4,1.1,0.5
				C101.8,9.8,101.1,10.1,100.3,10.4"/>
			<path fill="goldenrod" d="M105.5-0.6c0-0.6-0.5-1.1-1.2-1.1c-0.6,0-1.2,0.5-1.2,1.1c0,0.6,0.5,1.2,1.2,1.2
				C105,0.5,105.5,0,105.5-0.6 M104.4,0.3c-0.5,0-0.9-0.4-0.9-0.9c0-0.5,0.4-0.9,0.9-0.9c0.5,0,0.9,0.4,0.9,0.9
				C105.3-0.1,104.9,0.3,104.4,0.3"/>
			<path fill="goldenrod" d="M106.7,5c1-0.3,1.6-1.3,1.3-2.3c-0.3-1-1.3-1.6-2.3-1.3c-1,0.3-1.6,1.3-1.3,2.3
				C104.7,4.7,105.7,5.3,106.7,5 M105.9,1.7c0.9-0.2,1.7,0.3,2,1.2c0.2,0.9-0.3,1.7-1.2,2c-0.9,0.2-1.7-0.3-2-1.2
				C104.5,2.8,105,1.9,105.9,1.7"/>
			<path fill="goldenrod" d="M107.1,5.7l-0.4,0.1c0.1,1-0.3,2-1.1,2.7l0.2,0.3c1.1-0.3,2.3-0.6,3.5-0.9V7.5
				C108.3,7.3,107.5,6.7,107.1,5.7 M106.4,8.3c0.4-0.5,0.6-1.1,0.7-1.7c0.4,0.5,0.9,0.9,1.5,1.2C107.8,7.9,107.1,8.1,106.4,8.3"/>
			<path fill="goldenrod" d="M113.9,5.2c-0.2,0.1-0.4,0.1-0.6,0.1l-0.2,0c-0.3,0.8-0.7,1.4-1.4,1.8l0.1,0.3c1.3-0.2,2.6-0.4,3.9-0.5
				l0-0.4C114.9,6.3,114.4,5.9,113.9,5.2 M112.5,7c0.4-0.4,0.7-0.8,0.9-1.3c0.1,0,0.3,0,0.4-0.1c0.3,0.4,0.7,0.8,1.2,1
				C114.1,6.7,113.3,6.8,112.5,7"/>
			<path fill="goldenrod" d="M126.9,5.3l-0.2,0c-0.2,0-0.4,0-0.6-0.1c-0.5,0.7-1,1.2-1.8,1.4l0,0.4c1.3,0.1,2.6,0.3,3.9,0.5l0.1-0.3
				C127.6,6.6,127.2,6,126.9,5.3 M125.1,6.6c0.5-0.3,0.9-0.6,1.2-1c0.1,0,0.3,0,0.4,0.1l0,0.1c0.2,0.5,0.5,0.9,0.8,1.2
				C126.7,6.8,125.9,6.7,125.1,6.6"/>
			<path fill="goldenrod" d="M121.9,1.5c0-1-0.8-1.9-1.9-1.9c-1,0-1.9,0.8-1.9,1.9c0,1,0.8,1.9,1.9,1.9C121,3.3,121.9,2.5,121.9,1.5
				 M118.4,1.5c0-0.9,0.7-1.6,1.6-1.6c0.9,0,1.6,0.7,1.6,1.6c0,0.9-0.7,1.6-1.6,1.6C119.1,3.1,118.4,2.4,118.4,1.5"/>
			<path fill="goldenrod" d="M120.2,4.1h-0.4c-0.1,1-0.8,1.9-1.7,2.4l0.1,0.4c0.6,0,1.2,0,1.8,0c0.6,0,1.2,0,1.8,0l0.1-0.4
				C121,6,120.3,5.1,120.2,4.1 M120,6.4l-1.1,0c0.5-0.4,0.9-0.9,1.1-1.5c0.2,0.6,0.6,1.1,1.1,1.5L120,6.4z"/>
			<path fill="goldenrod" d="M136.8,13c-0.6,0-1.2,0.5-1.2,1.2c0,0.6,0.5,1.2,1.2,1.2c0.6,0,1.1-0.5,1.1-1.2
				C138,13.6,137.5,13,136.8,13 M136.8,15.1c-0.5,0-0.9-0.4-0.9-0.9c0-0.5,0.4-0.9,0.9-0.9c0.5,0,0.9,0.4,0.9,0.9
				C137.7,14.7,137.3,15.1,136.8,15.1"/>
			<path fill="goldenrod" d="M114.3,10.1c-0.6,0-1.2,0.5-1.2,1.2c0,0.6,0.5,1.2,1.2,1.2c0.6,0,1.2-0.5,1.2-1.2
				C115.4,10.6,114.9,10.1,114.3,10.1 M114.3,12.1c-0.5,0-0.9-0.4-0.9-0.9c0-0.5,0.4-0.9,0.9-0.9c0.5,0,0.9,0.4,0.9,0.9
				C115.2,11.7,114.8,12.1,114.3,12.1"/>
			<polygon fill="goldenrod" points="105.5,13.2 109,13.5 111.8,11.5 108.4,11.2 			"/>
			<path fill="goldenrod" d="M103.2,13c-0.6,0-1.1,0.5-1.1,1.2c0,0.6,0.5,1.2,1.1,1.2c0.6,0,1.2-0.5,1.2-1.2
				C104.3,13.6,103.8,13,103.2,13 M103.2,15.1c-0.5,0-0.9-0.4-0.9-0.9c0-0.5,0.4-0.9,0.9-0.9c0.5,0,0.9,0.4,0.9,0.9
				C104.1,14.7,103.7,15.1,103.2,15.1"/>
			<path fill="goldenrod" d="M133.3,5.8l-0.4-0.1c-0.4,1-1.2,1.6-2.2,1.8v0.4c1.2,0.3,2.3,0.6,3.5,0.9l0.2-0.3
				C133.6,7.8,133.2,6.8,133.3,5.8 M131.4,7.7c0.6-0.3,1.1-0.7,1.5-1.2c0.1,0.6,0.3,1.2,0.7,1.7C132.9,8.1,132.2,7.9,131.4,7.7"/>
			<polygon fill="goldenrod" points="128.2,11.5 131,13.5 134.5,13.2 131.6,11.2 			"/>
			<path fill="goldenrod" d="M116.4,10.9l3.6,1.3l3.6-1.3L120,9.6L116.4,10.9z M120,12l-2.9-1.1l2.9-1.1l2.9,1.1L120,12z"/>
			<path fill="goldenrod" d="M125.7,10.1c-0.6,0-1.2,0.5-1.2,1.2c0,0.6,0.5,1.2,1.2,1.2c0.6,0,1.2-0.5,1.2-1.2
				C126.9,10.6,126.4,10.1,125.7,10.1 M125.7,12.1c-0.5,0-0.9-0.4-0.9-0.9c0-0.5,0.4-0.9,0.9-0.9c0.5,0,0.9,0.4,0.9,0.9
				C126.6,11.7,126.2,12.1,125.7,12.1"/>
			<path fill="goldenrod" d="M144,1.4c0,0.6,0.5,1.2,1.2,1.2c0.6,0,1.2-0.5,1.2-1.2c0-0.6-0.5-1.1-1.2-1.1C144.6,0.3,144,0.8,144,1.4
				 M145.2,0.5c0.5,0,0.9,0.4,0.9,0.9c0,0.5-0.4,0.9-0.9,0.9c-0.5,0-0.9-0.4-0.9-0.9C144.3,0.9,144.7,0.5,145.2,0.5"/>
			<path fill="goldenrod" d="M133.5-5.5c0.6,0,1.2-0.5,1.2-1.2c0-0.6-0.5-1.2-1.2-1.2c-0.6,0-1.1,0.5-1.1,1.2
				C132.3-6,132.8-5.5,133.5-5.5 M133.5-7.5c0.5,0,0.9,0.4,0.9,0.9c0,0.5-0.4,0.9-0.9,0.9c-0.5,0-0.9-0.4-0.9-0.9
				C132.6-7.1,133-7.5,133.5-7.5"/>
			<path fill="goldenrod" d="M136.3-5.7c0.6,0,1.2-0.5,1.2-1.2c0-0.6-0.5-1.2-1.2-1.2c-0.6,0-1.2,0.5-1.2,1.2
				C135.2-6.2,135.7-5.7,136.3-5.7 M136.3-7.8c0.5,0,0.9,0.4,0.9,0.9c0,0.5-0.4,0.9-0.9,0.9c-0.5,0-0.9-0.4-0.9-0.9
				C135.4-7.4,135.8-7.8,136.3-7.8"/>
			<path fill="goldenrod" d="M139.1-4.6c0.6,0,1.2-0.5,1.2-1.2c0-0.6-0.5-1.2-1.2-1.2c-0.6,0-1.1,0.5-1.1,1.2
				C138-5.1,138.5-4.6,139.1-4.6 M139.1-6.7c0.5,0,0.9,0.4,0.9,0.9c0,0.5-0.4,0.9-0.9,0.9s-0.9-0.4-0.9-0.9S138.6-6.7,139.1-6.7"/>
			<path fill="goldenrod" d="M136.5-3.8c0,0.8-0.4,1.1-1,1.5c0.9,0.2,1.7,0.6,1.7,1.7c0,0.9-0.6,1.4-1.4,1.6c0.3,0.5,0.3,0.7,0.3,1.3
				c1,0.5,1.2,1.1,1,2.2c-0.4,1.5-1.3,1.6-2.7,1.3c-0.2,2.3,2.3,3.2,3.6,1.5c0-0.1,0-0.3,0-0.4c0.2-0.9,1.1-1.4,2-1.2
				c0.9,0.2,1.4,1.1,1.2,2c-0.1,0.3-0.2,0.5-0.4,0.7c-0.1,0.8,0.3,1.6,1,2c0.7,0.4,1.3,0.2,2,0c-1.2-0.6-1.8-1.1-1.3-2.5
				c0.2-0.6,0.5-1.1,1.2-1.3c-0.4-5.5-2-8.1-6.9-10.6L136.5-3.8z M143.4,6.2c-0.6,0.2-1,0.9-1.2,1.4c-0.4,0.9-0.4,1.9,0.6,2.6
				c-0.9,0.1-1.7-0.7-1.7-1.7c0.2-0.2,0.3-0.5,0.4-0.8c0.3-1.1-0.4-2.2-1.4-2.5c-1.1-0.3-2.2,0.4-2.5,1.5c0,0.1,0,0.2-0.1,0.4
				c-0.9,1.1-2.7,0.5-2.8-0.9c1.7,0.3,2.4-0.5,2.7-1.7c0.2-1,0.1-1.9-1-2.5c0-0.3,0-0.6-0.1-0.8c0.6-0.3,1.1-0.8,1.2-1.5
				c1,0.2,2,0.5,2.9,0.8c0.8,0.3,1.5,0.8,2,1.2C143,3.1,143.2,4.5,143.4,6.2 M142.3,1.3c-0.4-0.3-1-0.7-1.7-0.9c-0.9-0.4-2-0.6-3-1
				c0-0.8-0.5-1.6-1.3-1.9c0.3-0.3,0.5-0.8,0.5-1.3C139.7-2.2,141.3-0.7,142.3,1.3"/>
			<path fill="goldenrod" d="M133.7-3.8c0,0.6,0.5,1.1,1.2,1.1c0.6,0,1.2-0.5,1.2-1.1c0-0.6-0.5-1.2-1.2-1.2
				C134.2-5,133.7-4.4,133.7-3.8 M134.9-4.7c0.5,0,0.9,0.4,0.9,0.9c0,0.5-0.4,0.9-0.9,0.9c-0.5,0-0.9-0.4-0.9-0.9
				C134-4.3,134.4-4.7,134.9-4.7"/>
			<path fill="goldenrod" d="M122.8-11.3c0.6,0,1.2-0.5,1.2-1.2c0-0.6-0.5-1.2-1.2-1.2c-0.6,0-1.2,0.5-1.2,1.2
				C121.7-11.8,122.2-11.3,122.8-11.3 M122.8-13.3c0.5,0,0.9,0.4,0.9,0.9c0,0.5-0.4,0.9-0.9,0.9c-0.5,0-0.9-0.4-0.9-0.9
				C121.9-12.9,122.3-13.3,122.8-13.3"/>
			<path fill="goldenrod" d="M128.6-9.7c0.6,0,1.2-0.5,1.2-1.2c0-0.6-0.5-1.2-1.2-1.2c-0.6,0-1.2,0.5-1.2,1.2
				C127.5-10.2,128-9.7,128.6-9.7 M128.6-11.8c0.5,0,0.9,0.4,0.9,0.9s-0.4,0.9-0.9,0.9c-0.5,0-0.9-0.4-0.9-0.9
				S128.1-11.8,128.6-11.8"/>
			<path fill="goldenrod" d="M125.8-10.8c0.6,0,1.2-0.5,1.2-1.2c0-0.6-0.5-1.2-1.2-1.2c-0.6,0-1.1,0.5-1.1,1.2
				C124.6-11.3,125.1-10.8,125.8-10.8 M125.8-12.8c0.5,0,0.9,0.4,0.9,0.9c0,0.5-0.4,0.9-0.9,0.9c-0.5,0-0.9-0.4-0.9-0.9
				C124.9-12.4,125.3-12.8,125.8-12.8"/>
			<path fill="goldenrod" d="M120-8.5c0.6,0,1.2-0.5,1.2-1.2c0-0.6-0.5-1.2-1.2-1.2c-0.6,0-1.1,0.5-1.1,1.2C118.8-9,119.4-8.5,120-8.5
				 M120-10.6c0.5,0,0.9,0.4,0.9,0.9c0,0.5-0.4,0.9-0.9,0.9c-0.5,0-0.9-0.4-0.9-0.9C119.1-10.2,119.5-10.6,120-10.6"/>
			<path fill="goldenrod" d="M141.7-2.7c0.6,0,1.2-0.5,1.2-1.2c0-0.6-0.5-1.2-1.2-1.2c-0.6,0-1.2,0.5-1.2,1.2
				C140.6-3.2,141.1-2.7,141.7-2.7 M141.7-4.8c0.5,0,0.9,0.4,0.9,0.9c0,0.5-0.4,0.9-0.9,0.9c-0.5,0-0.9-0.4-0.9-0.9
				C140.8-4.4,141.2-4.8,141.7-4.8"/>
			<path fill="goldenrod" d="M146.5,7.2c-0.9-0.5-2-0.2-2.5,0.7c-0.5,0.9-0.2,2,0.7,2.5c0.9,0.5,2,0.2,2.5-0.7
				C147.7,8.8,147.4,7.7,146.5,7.2 M147,9.6c-0.4,0.8-1.4,1.1-2.2,0.6c-0.8-0.4-1.1-1.4-0.6-2.2c0.4-0.8,1.4-1.1,2.2-0.6
				C147.2,7.8,147.4,8.8,147,9.6"/>
			<path fill="goldenrod" d="M136.8-0.6c0-0.6-0.5-1.1-1.2-1.1c-0.6,0-1.2,0.5-1.2,1.1c0,0.6,0.5,1.2,1.2,1.2
				C136.2,0.5,136.8,0,136.8-0.6 M134.7-0.6c0-0.5,0.4-0.9,0.9-0.9c0.5,0,0.9,0.4,0.9,0.9c0,0.5-0.4,0.9-0.9,0.9
				C135.1,0.3,134.7-0.1,134.7-0.6"/>
			<path fill="goldenrod" d="M139.2,8.9c-0.3-0.1-0.5-0.2-0.8-0.3c-0.5,0.4-1.1,0.6-1.8,0.6l0,0.4c1.2,0.4,2.4,0.9,3.6,1.4l0.2-0.3
				c-0.5-0.5-0.7-1.1-0.9-1.8C139.4,8.9,139.3,8.9,139.2,8.9 M137.4,9.5c0.4-0.1,0.8-0.3,1.1-0.5c0.2,0.1,0.4,0.2,0.7,0.3
				c0.1,0.4,0.2,0.8,0.5,1.1C138.9,10.1,138.2,9.8,137.4,9.5"/>
			<path fill="goldenrod" d="M144.8,4.6c0,0.6,0.5,1.2,1.2,1.2c0.6,0,1.2-0.5,1.2-1.2c0-0.6-0.5-1.1-1.2-1.1
				C145.3,3.5,144.8,4,144.8,4.6 M145.9,3.7c0.5,0,0.9,0.4,0.9,0.9c0,0.5-0.4,0.9-0.9,0.9c-0.5,0-0.9-0.4-0.9-0.9
				C145,4.1,145.4,3.7,145.9,3.7"/>
			<path fill="goldenrod" d="M143.9-0.2c0.6,0,1.2-0.5,1.2-1.2c0-0.6-0.5-1.2-1.2-1.2c-0.6,0-1.2,0.5-1.2,1.2
				C142.7-0.7,143.2-0.2,143.9-0.2 M143.9-2.3c0.5,0,0.9,0.4,0.9,0.9c0,0.5-0.4,0.9-0.9,0.9c-0.5,0-0.9-0.4-0.9-0.9
				C143-1.9,143.4-2.3,143.9-2.3"/>
			<path fill="goldenrod" d="M131.9,2.8c-0.3,1,0.3,2,1.3,2.3c1,0.3,2-0.3,2.3-1.3c0.3-1-0.3-2-1.3-2.3C133.2,1.2,132.2,1.8,131.9,2.8
				 M135.3,3.6c-0.2,0.9-1.1,1.4-2,1.2c-0.9-0.2-1.4-1.1-1.2-2c0.2-0.9,1.1-1.4,2-1.2C135,1.9,135.5,2.8,135.3,3.6"/>
		</g>
	</g>
</g>
<g id="Capa_1">
</g>
</svg>
